<svg id="Layer_1" data-name="Layer 1" xmlns="http://www.w3.org/2000/svg" viewBox="0 0 851.6504 97.8842"><defs><style>.cls-1{fill:#fff;}</style></defs><path class="cls-1" d="M0,72.6776Q0,55.5332,13.4353,43.12,26.87,30.7107,43.8885,30.7087a26.0642,26.0642,0,0,1,18.5534,7.5491V3.3261Q62.4419.0015,67.048,0,71.9093,0,71.91,3.3261V92.382q0,3.5845-4.7341,3.5831a5.7571,5.7571,0,0,1-3.3266-.96,3.0083,3.0083,0,0,1-1.4075-2.6231V71.5256Q52.0774,84.9614,42.6729,90.975a35.5267,35.5267,0,0,1-19.3854,6.0141q-9.2124,0-16.25-7.4861T0,72.6776Zm9.2127.256q0,7.2931,5.1181,11.0682a18.0053,18.0053,0,0,0,10.8763,3.7741q6.6513,0,15.2263-6.5891A67.32,67.32,0,0,0,54.7,66.4715q5.6922-8.1233,5.6941-12.7313a11.1741,11.1741,0,0,0-2.239-6.8452A13.4436,13.4436,0,0,0,52.6532,42.48a42.44,42.44,0,0,0-5.95-2.111,18.3982,18.3982,0,0,0-4.4786-.703q-12.5415,0-22.776,10.0442Q9.2108,59.7564,9.2127,72.9336Z"/><path class="cls-1" d="M84.4479,64.2324A31.4028,31.4028,0,0,1,90.27,45.231a34.1368,34.1368,0,0,1,14.0748-11.5793,43.0908,43.0908,0,0,1,17.3379-3.583q12.7934,0,23.6075,9.66a31.2936,31.2936,0,0,1,10.8123,24.3755,33.0807,33.0807,0,0,1-9.5968,23.8635q-9.5964,9.9177-25.079,9.9163a37.3862,37.3862,0,0,1-26.1026-9.9163Q84.4471,78.0532,84.4479,64.2324Zm9.4687.128q0,9.0863,8.3172,16.57a27.99,27.99,0,0,0,19.3209,7.4851,23.8471,23.8471,0,0,0,17.7214-7.5491q7.3566-7.5487,7.3576-16.7624,0-8.9547-7.0376-16.7614-7.0385-7.8042-18.1694-7.8051-13.051,0-20.2805,7.9331T93.9166,64.36Z"/><path class="cls-1" d="M163.7791,36.7228a5.7623,5.7623,0,0,1,.96-3.3271,3.015,3.015,0,0,1,2.6231-1.408h4.35V16.2494a2.8988,2.8988,0,0,1,1.3435-2.5591,5.761,5.761,0,0,1,3.2631-.895q4.8613,0,4.8621,3.4541V31.9877h20.4725a2.8957,2.8957,0,0,1,2.559,1.344,5.7564,5.7564,0,0,1,.896,3.2631q0,4.8636-3.455,4.8621H181.181V72.0376q0,14.3324,10.8763,14.3313a12.8936,12.8936,0,0,0,7.9971-2.5591q3.389-2.5579,3.3906-8.9571a3.5783,3.5783,0,0,1,1.4715-2.9431,5.5319,5.5319,0,0,1,3.5186-1.151,4.7761,4.7761,0,0,1,3.1991,1.087,3.8931,3.8931,0,0,1,1.28,3.1351q-.1292,10.11-6.0781,15.4823a21.2268,21.2268,0,0,1-14.7783,5.3741q-20.3449,0-20.345-27.2546V41.4569h-4.35Q163.7784,41.4569,163.7791,36.7228Z"/><path class="cls-1" d="M218.5424,36.7228a5.7623,5.7623,0,0,1,.96-3.3271,3.0147,3.0147,0,0,1,2.623-1.408h4.35V16.2494a2.8987,2.8987,0,0,1,1.3436-2.5591,5.76,5.76,0,0,1,3.263-.895q4.8614,0,4.8621,3.4541V31.9877h20.4725a2.8957,2.8957,0,0,1,2.559,1.344,5.7565,5.7565,0,0,1,.8961,3.2631q0,4.8636-3.4551,4.8621H235.9442V72.0376q0,14.3324,10.8763,14.3313a12.8936,12.8936,0,0,0,7.9971-2.5591q3.389-2.5579,3.3906-8.9571A3.5782,3.5782,0,0,1,259.68,71.91a5.5316,5.5316,0,0,1,3.5185-1.151,4.7759,4.7759,0,0,1,3.1991,1.087,3.8931,3.8931,0,0,1,1.2795,3.1351q-.1291,10.11-6.0781,15.4823a21.2268,21.2268,0,0,1-14.7783,5.3741q-20.345,0-20.345-27.2546V41.4569h-4.35Q218.5416,41.4569,218.5424,36.7228Z"/><path class="cls-1" d="M274.7136,62.1854a29.3445,29.3445,0,0,1,3.5831-14.5873A27.6988,27.6988,0,0,1,287.7649,37.49a46.7839,46.7839,0,0,1,12.6678-5.5661,52.2127,52.2127,0,0,1,13.8188-1.855q12.5385,0,19.4489,5.4381,6.91,5.44,6.91,13.3713,0,8.5737-8.0611,14.5863-8.0611,6.0171-22.9035,6.0141A82.8117,82.8117,0,0,1,284.31,65.64a25.2628,25.2628,0,0,0,8.8287,15.8664q7.4194,6.4,18.2974,6.3971A43.0512,43.0512,0,0,0,323.4,86.1129a23.8642,23.8642,0,0,0,9.7887-5.1181,2.0617,2.0617,0,0,1,2.047-1.024,6.3934,6.3934,0,0,1,3.8386,1.599q2.0455,1.6024,2.0476,3.2631-3.2005,6.5267-12.4758,9.5332a58.24,58.24,0,0,1-17.9774,3.0061q-15.7383,0-25.8466-10.3643A34.29,34.29,0,0,1,274.7136,62.1854Zm10.1087-6.3982q9.5966,4.2227,23.799,4.2231,11.1325,0,16.89-3.5191t5.7581-7.8691q0-3.8387-4.7981-6.4612t-14.2668-2.623q-10.2389,0-17.0819,4.5421A28.954,28.954,0,0,0,284.8223,55.7872Z"/><path class="cls-1" d="M350.9733,72.6776q0-17.1444,13.4353-29.5576,13.4351-12.4093,30.4532-12.4113a26.0642,26.0642,0,0,1,18.5534,7.5491V3.3261q0-3.3246,4.6061-3.3261,4.8614,0,4.8621,3.3261V92.382q0,3.5845-4.7341,3.5831a5.7571,5.7571,0,0,1-3.3266-.96,3.0083,3.0083,0,0,1-1.4075-2.6231V71.5256q-10.3646,13.4358-19.769,19.4494a35.5267,35.5267,0,0,1-19.3854,6.0141q-9.2124,0-16.25-7.4861T350.9733,72.6776Zm9.2127.256q0,7.2931,5.1181,11.0682A18.0052,18.0052,0,0,0,376.18,87.7759q6.6515,0,15.2264-6.5891a67.32,67.32,0,0,0,14.2668-14.7153q5.6922-8.1233,5.6941-12.7313a11.1741,11.1741,0,0,0-2.239-6.8452,13.4432,13.4432,0,0,0-5.5022-4.4151,42.4346,42.4346,0,0,0-5.95-2.111,18.3982,18.3982,0,0,0-4.4786-.703q-12.5415,0-22.776,10.0442Q360.1841,59.7564,360.186,72.9336Z"/><path class="cls-1" d="M466.2579,72.6776q0-17.1444,13.4353-29.5576,13.4357-12.4093,30.4526-12.4113a26.0623,26.0623,0,0,1,18.5534,7.5491V3.3261q0-3.3246,4.6071-3.3261,4.8606,0,4.8621,3.3261V92.382q0,3.5845-4.7351,3.5831a5.7563,5.7563,0,0,1-3.326-.96,3.0075,3.0075,0,0,1-1.4081-2.6231V71.5256Q518.3356,84.9614,508.9308,90.975a35.5257,35.5257,0,0,1-19.3854,6.0141q-9.2118,0-16.25-7.4861T466.2579,72.6776Zm9.2132.256q0,7.2931,5.1181,11.0682a18.0037,18.0037,0,0,0,10.8762,3.7741q6.6507,0,15.2263-6.5891a67.34,67.34,0,0,0,14.2664-14.7153q5.692-8.1233,5.6941-12.7313a11.17,11.17,0,0,0-2.2391-6.8452A13.4429,13.4429,0,0,0,518.911,42.48a42.3989,42.3989,0,0,0-5.95-2.111,18.3919,18.3919,0,0,0-4.4781-.703q-12.5408,0-22.7755,10.0442Q475.4691,59.7564,475.4711,72.9336Z"/><path class="cls-1" d="M550.7057,64.2324a31.4061,31.4061,0,0,1,5.8222-19.0014,34.1381,34.1381,0,0,1,14.0753-11.5793,43.0863,43.0863,0,0,1,17.3374-3.583q12.7932,0,23.6075,9.66A31.2935,31.2935,0,0,1,622.36,64.1044a33.0794,33.0794,0,0,1-9.5972,23.8635q-9.5957,9.9177-25.0785,9.9163a37.3867,37.3867,0,0,1-26.1026-9.9163Q550.7043,78.0532,550.7057,64.2324Zm9.4692.128q0,9.0863,8.3162,16.57a27.992,27.992,0,0,0,19.3215,7.4851,23.8488,23.8488,0,0,0,17.7214-7.5491q7.3566-7.5487,7.3571-16.7624,0-8.9547-7.0371-16.7614-7.0377-7.8042-18.1694-7.8051-13.0518,0-20.2805,7.9331Q560.1731,55.4053,560.1749,64.36Z"/><path class="cls-1" d="M634.8986,92.638V35.4428a2.896,2.896,0,0,1,1.344-2.5591,5.757,5.757,0,0,1,3.2621-.896q4.8621,0,4.8621,3.4551V45.551a46.5133,46.5133,0,0,1,15.4834-10.94,45.0338,45.0338,0,0,1,18.4244-4.03q12.0267,0,20.1534,7.4851,8.1232,7.4853,8.1252,19.5135,0,1.15-.064,11.7072-.0665,10.5573-.064,23.0955a3.0121,3.0121,0,0,1-1.408,2.6231,5.7613,5.7613,0,0,1-3.3261.96q-4.7365,0-4.7351-3.5831V58.73q0-9.0833-6.4612-13.9463a21.9886,21.9886,0,0,0-13.3713-4.8631q-9.3417,0-19.1294,6.2061T644.3668,61.8014V92.638q0,3.4547-4.8621,3.4551a5.7414,5.7414,0,0,1-3.2621-.896A2.8914,2.8914,0,0,1,634.8986,92.638Z"/><path class="cls-1" d="M720.1135,69.8625q0-1.152.064-11.4522.0636-10.2974.064-22.8395a3.0112,3.0112,0,0,1,1.408-2.6231,5.7578,5.7578,0,0,1,3.3271-.96q4.7322,0,4.7341,3.5831v33.14q0,9.0878,6.4612,14.1393,6.46,5.0556,13.3713,5.0541,8.7006,0,18.6174-6.3341,9.9147-6.3332,13.7553-15.8014V35.4428q0-3.4547,4.8621-3.4551a5.7626,5.7626,0,0,1,3.2631.896,2.8973,2.8973,0,0,1,1.343,2.5591V92.51a2.8927,2.8927,0,0,1-1.343,2.5591,5.747,5.747,0,0,1-3.2631.896q-4.8651,0-4.8621-3.4551V82.0178a46.9667,46.9667,0,0,1-15.29,11.1323,43.151,43.151,0,0,1-18.2334,4.095q-12.03,0-20.1534-7.6781Q720.1126,81.89,720.1135,69.8625Z"/><path class="cls-1" d="M802.5163,36.7228a5.7684,5.7684,0,0,1,.9591-3.3271,3.0153,3.0153,0,0,1,2.623-1.408H810.45V16.2494a2.8973,2.8973,0,0,1,1.343-2.5591,5.76,5.76,0,0,1,3.2631-.895q4.8606,0,4.8621,3.4541V31.9877H840.39a2.8957,2.8957,0,0,1,2.559,1.344,5.76,5.76,0,0,1,.896,3.2631q0,4.8636-3.455,4.8621H819.9177V72.0376q0,14.3324,10.8763,14.3313a12.8936,12.8936,0,0,0,7.9971-2.5591q3.3882-2.5579,3.3911-8.9571a3.5779,3.5779,0,0,1,1.471-2.9431,5.5323,5.5323,0,0,1,3.5191-1.151,4.7743,4.7743,0,0,1,3.1981,1.087,3.8934,3.8934,0,0,1,1.28,3.1351q-.1284,10.11-6.0781,15.4823a21.226,21.226,0,0,1-14.7783,5.3741q-20.345,0-20.3445-27.2546V41.4569h-4.3511Q802.5154,41.4569,802.5163,36.7228Z"/></svg>