<svg id="Layer_1" data-name="Layer 1" xmlns="http://www.w3.org/2000/svg" viewBox="0 0 851.6504 204.9787"><defs><style>.cls-1{fill:#fff;}</style></defs><path class="cls-1" d="M0,152.1939q0-35.9031,28.1343-61.8958,28.1343-25.9865,63.7713-25.991,22.2376,0,38.8528,15.8091V6.9668q0-6.9649,9.646-6.9668,10.18,0,10.1819,6.9668v186.49q0,7.5052-9.9139,7.5027a12.0615,12.0615,0,0,1-6.9668-2.01,6.3024,6.3024,0,0,1-2.9472-5.4932V149.7818Q109.0543,177.9161,89.36,190.51q-19.6935,12.5968-40.5935,12.5932-19.2929,0-34.03-15.6744Q-.0019,171.7532,0,152.1939Zm19.2921.5358q0,15.2728,10.7177,23.177,10.7147,7.9071,22.7758,7.9045,13.9287,0,31.8853-13.7989a141.0338,141.0338,0,0,0,29.8766-30.8143q11.9192-17.0121,11.9234-26.6607a23.4034,23.4034,0,0,0-4.6887-14.3347A28.1391,28.1391,0,0,0,110.26,88.9584a88.7559,88.7559,0,0,0-12.4592-4.4215,38.5374,38.5374,0,0,0-9.3781-1.4736q-26.2633,0-47.6943,21.0336Q19.2875,125.1358,19.2921,152.73Z"/><path class="cls-1" d="M168.5078,134.5093q0-23.0415,12.1913-39.79Q192.89,77.977,210.1738,70.47a90.2527,90.2527,0,0,1,36.3068-7.5026q26.79,0,49.4358,20.23,22.6407,20.234,22.6411,51.0441,0,29.2083-20.0951,49.9717-20.0965,20.7687-52.5177,20.7656-31.89,0-54.6611-20.7656Q168.5055,163.4512,168.5078,134.5093Zm19.8279.268q0,19.0282,17.4166,34.6992a58.6143,58.6143,0,0,0,40.46,15.6743q21.7031,0,37.1106-15.809,15.4044-15.8064,15.4071-35.1,0-18.7524-14.7373-35.1011-14.7393-16.3411-38.0483-16.3449-27.3306,0-42.47,16.6128Q188.3338,116.0252,188.3357,134.7773Z"/><path class="cls-1" d="M323.676,76.9a12.07,12.07,0,0,1,2.01-6.966,6.3114,6.3114,0,0,1,5.4932-2.9479h9.1094V34.0294a6.0662,6.0662,0,0,1,2.814-5.3592,12.0561,12.0561,0,0,1,6.8328-1.8755q10.1788,0,10.1811,7.2347v32.957h42.8724A6.0652,6.0652,0,0,1,408.3476,69.8a12.0641,12.0641,0,0,1,1.8755,6.8328q0,10.1868-7.234,10.1819H360.1167v64.0392q0,30.0132,22.7766,30.0105a26.9982,26.9982,0,0,0,16.746-5.3592q7.0977-5.3562,7.1008-18.7562a7.4935,7.4935,0,0,1,3.0819-6.163,11.5849,11.5849,0,0,1,7.3686-2.4114,10.0012,10.0012,0,0,1,6.6982,2.2774,8.1546,8.1546,0,0,1,2.6792,6.5649q-.27,21.1705-12.7272,32.4219-12.4606,11.2539-30.9475,11.2535-42.6045,0-42.6045-57.0724V86.8143h-9.1094Q323.6752,86.8143,323.676,76.9Z"/><path class="cls-1" d="M438.3551,76.9a12.07,12.07,0,0,1,2.01-6.966,6.3115,6.3115,0,0,1,5.4932-2.9479h9.11V34.0294a6.0664,6.0664,0,0,1,2.8139-5.3592,12.0564,12.0564,0,0,1,6.8329-1.8755q10.1788,0,10.1811,7.2347v32.957h42.8724A6.0652,6.0652,0,0,1,523.0268,69.8a12.0641,12.0641,0,0,1,1.8755,6.8328q0,10.1868-7.234,10.1819H474.7959v64.0392q0,30.0132,22.7766,30.0105a26.9982,26.9982,0,0,0,16.746-5.3592q7.0977-5.3562,7.1007-18.7562a7.4935,7.4935,0,0,1,3.0819-6.163,11.5852,11.5852,0,0,1,7.3687-2.4114,10.0011,10.0011,0,0,1,6.6981,2.2774,8.1547,8.1547,0,0,1,2.6793,6.5649q-.27,21.1705-12.7272,32.4219-12.4608,11.2539-30.9475,11.2535-42.6045,0-42.6045-57.0724V86.8143h-9.11Q438.3545,86.8143,438.3551,76.9Z"/><path class="cls-1" d="M550.8679,130.2218q0-17.1438,7.5019-30.5456a58.009,58.009,0,0,1,19.8279-21.1683,97.92,97.92,0,0,1,26.5275-11.6555,109.2853,109.2853,0,0,1,28.9374-3.8849q26.2565,0,40.7275,11.3875,14.47,11.3925,14.4694,28,0,17.9544-16.8807,30.5456-16.8793,12.5982-47.9615,12.594a173.4092,173.4092,0,0,1-53.0536-8.0385,52.8905,52.8905,0,0,0,18.4883,33.2256q15.5351,13.4009,38.3162,13.397a90.1435,90.1435,0,0,0,25.0532-3.7509q12.9921-3.75,20.497-10.7178,1.0693-2.1421,4.2883-2.1441,3.7486,0,8.0377,3.35,4.2822,3.3535,4.2868,6.8321-6.7,13.6653-26.1249,19.9626a121.9386,121.9386,0,0,1-37.6456,6.2962q-32.957,0-54.1253-21.7034Q550.8648,160.4995,550.8679,130.2218Zm21.1675-13.397q20.0945,8.8416,49.837,8.8423,23.3117,0,35.369-7.3687Q669.3,110.9316,669.3,101.82q0-8.0389-10.0479-13.531-10.0472-5.489-29.8758-5.4932-21.4408,0-35.7717,9.5121A60.632,60.632,0,0,0,572.0354,116.8248Z"/><path class="cls-1" d="M701.0649,152.1939q0-35.9031,28.1335-61.8958,28.1343-25.9865,63.7721-25.991,22.2377,0,38.852,15.8091V6.9668q0-6.9649,9.6453-6.9668Q851.6489,0,851.65,6.9668v186.49q0,7.5052-9.9147,7.5027a12.0607,12.0607,0,0,1-6.966-2.01,6.3024,6.3024,0,0,1-2.9472-5.4932V149.7818q-21.7041,28.1343-41.3981,40.7283Q770.73,203.1069,749.83,203.1033q-19.2906,0-34.0294-15.6744T701.0649,152.1939Zm19.292.5358q0,15.2728,10.717,23.177,10.7147,7.9071,22.7751,7.9045,13.93,0,31.886-13.7989a141.0113,141.0113,0,0,0,29.8758-30.8143q11.92-17.0121,11.9249-26.6607a23.404,23.404,0,0,0-4.6894-14.3347,28.1391,28.1391,0,0,0-11.5223-9.2442,88.7559,88.7559,0,0,0-12.4592-4.4215,38.5317,38.5317,0,0,0-9.3789-1.4736q-26.2611,0-47.6935,21.0336Q720.3516,125.1358,720.3569,152.73Z"/></svg>